<svg xmlns="http://www.w3.org/2000/svg" width="103" height="103" viewBox="0 0 103 103"><g transform="translate(10.3 22.302)"><path d="M73.765,103.93A25.75,25.75,0,0,0,63.45,153.28v12.465a5.15,5.15,0,0,0,5.15,5.15v1.717a5.15,5.15,0,0,0,10.3,0v-1.717a5.15,5.15,0,0,0,5.15-5.15V153.28a25.75,25.75,0,0,0-10.285-49.35Zm1.7,68.682a1.717,1.717,0,0,1-3.433,0v-1.717h3.433Zm3.433-5.15H68.6a1.717,1.717,0,0,1-1.717-1.717H80.617A1.717,1.717,0,0,1,78.9,167.462Zm1.717-5.15H66.883v-1.717H80.617Zm0-5.15H66.883v-2.675a25.091,25.091,0,0,0,13.733,0Zm-.843-6,2.542-17.79-3.4-.488-2.711,18.985a21.255,21.255,0,0,1-4.913,0l-2.711-18.985-3.4.488,2.542,17.79a22.317,22.317,0,1,1,12.048,0Z" transform="translate(-48 -103.93)"/></g><path d="M102.5,29.686,80.18,7.37a1.716,1.716,0,0,0-1.214-.5V1.717A1.717,1.717,0,0,0,77.25,0H18.883V.015A1.694,1.694,0,0,0,17.67.5L.5,17.67a1.717,1.717,0,0,0-.488,1.214H0v82.4A1.717,1.717,0,0,0,1.717,103H77.25a1.717,1.717,0,0,0,1.717-1.717V45.344L82.9,49.28a1.717,1.717,0,0,0,2.427,0L102.5,32.114A1.717,1.717,0,0,0,102.5,29.686ZM72.1,3.433h3.433V6.867H72.1ZM17.167,5.861V17.167H5.861Zm51.5,93.706H3.433V20.6h15.45A1.717,1.717,0,0,0,20.6,18.883V3.433H68.667V6.867H61.8a1.717,1.717,0,0,0-1.717,1.717V25.75a1.716,1.716,0,0,0,.5,1.214l8.08,8.08Zm6.867,0H72.1V38.477l3.433,3.433Zm8.583-53.927-20.6-20.6V10.3H78.256l20.6,20.6Z"/><g transform="translate(21.549 42.916)"><path d="M122.559,200.186a1.717,1.717,0,0,0-1.535,0l-6.1,3.042-6.1-3.051a1.717,1.717,0,0,0-1.535,0l-6.867,3.433,1.535,3.073,6.1-3.051,6.1,3.059a1.717,1.717,0,0,0,1.535,0l6.1-3.059,6.1,3.059,1.535-3.073Z" transform="translate(-100.424 -199.996)"/></g><g transform="translate(66.95 13.733)"><path d="M317.15,64a5.15,5.15,0,1,0,5.15,5.15A5.15,5.15,0,0,0,317.15,64Zm0,6.867a1.717,1.717,0,1,1,1.717-1.717A1.717,1.717,0,0,1,317.15,70.867Z" transform="translate(-312 -64)"/></g><g transform="translate(42.433 17.408)"><g transform="translate(0 0)"><rect width="14.144" height="3.264"/></g></g><g transform="translate(51.137 9.792)"><g transform="translate(0 0)"><rect width="5.44" height="4.352"/></g></g><g transform="translate(34.817 9.792)"><g transform="translate(0 0)"><rect width="13.056" height="4.352"/></g></g><g transform="translate(81.185 27.971)"><rect width="12.137" height="3.433" transform="translate(0 8.582) rotate(-45)"/></g><g transform="translate(85.834 49.817)"><path d="M416.771,241.368l.021-.017-6.867-8.583a1.779,1.779,0,0,0-2.681,0l-6.867,8.583.021.017a1.683,1.683,0,0,0-.4,1.056v39.483a3.433,3.433,0,0,0,3.433,3.433h10.3a3.433,3.433,0,0,0,3.433-3.433V242.424A1.684,1.684,0,0,0,416.771,241.368Zm-8.187-4.781,3.3,4.12h-6.592Zm5.15,45.32h-10.3V244.14h10.3Z" transform="translate(-400.001 -232.157)"/></g><g transform="translate(51.137 73.986)"><g transform="translate(0 0)"><rect width="14.144" height="3.264"/></g></g><g transform="translate(51.137 80.514)"><g transform="translate(0 0)"><rect width="14.144" height="3.264"/></g></g><g transform="translate(51.137 87.042)"><g transform="translate(0 0)"><rect width="14.144" height="4.352"/></g></g></svg>