<svg xmlns="http://www.w3.org/2000/svg" width="115.333" height="118.427" viewBox="0 0 115.333 118.427"><g transform="translate(43.715 -134.707)"><path d="M79.9,115.585a1.723,1.723,0,0,0,2.492,0,1.861,1.861,0,0,0,0-2.573L63.878,93.9l6.067-6.2,5.01,5.174,22.852,23.6L61.631,153.829a4.964,4.964,0,0,0,0,6.861l16.488,17.025a4.6,4.6,0,0,0,6.644,0L120.94,140.36l26.081,26.93a1.756,1.756,0,0,0,.244.206c.024.017.048.033.073.049a1.729,1.729,0,0,0,.237.129l.038.018a1.746,1.746,0,0,0,.235.078l18.822,4.789a1.725,1.725,0,0,0,1.667-.48,1.859,1.859,0,0,0,.465-1.722l-4.638-19.436a1.869,1.869,0,0,0-.075-.243c-.005-.013-.013-.026-.018-.039a1.835,1.835,0,0,0-.125-.244c-.015-.025-.031-.05-.048-.075a1.8,1.8,0,0,0-.2-.252l-26.08-26.93,35.959-37.127a4.964,4.964,0,0,0,0-6.861L157.088,62.125a4.6,4.6,0,0,0-6.644,0l-9.452,9.759-26.506,27.37L85.4,69.225a1.723,1.723,0,0,0-2.492,0l-.862.89L79.664,67.61a8.623,8.623,0,0,0-6.284-2.722h-.006a8.824,8.824,0,0,0-8.149,5.623,9.327,9.327,0,0,0,1.912,9.927l2.443,2.522L60.142,92.6a1.861,1.861,0,0,0-.007,2.58Zm80.065,35.772-11.694,12.074L78.693,91.592,90.387,79.517ZM82.272,175.144a1.151,1.151,0,0,1-1.662,0L64.122,158.119a1.241,1.241,0,0,1,0-1.715l24.656-25.459,7.87,8.126a1.723,1.723,0,0,0,2.492,0,1.861,1.861,0,0,0,0-2.573l-7.87-8.126,9.03-9.324,18.149,18.74Zm69.45-10.134,9.768-10.086,3.193,13.383Zm-27.3-70.866,7.87,8.126a1.723,1.723,0,0,0,2.492,0,1.861,1.861,0,0,0,0-2.573l-7.87-8.126,15.328-15.827,4.657,4.809a1.723,1.723,0,0,0,2.492,0,1.861,1.861,0,0,0,0-2.573l-4.658-4.808,8.206-8.473a1.151,1.151,0,0,1,1.661,0l16.488,17.025a1.243,1.243,0,0,1,0,1.715l-35.958,37.129-18.149-18.741ZM87.9,76.944,76.2,89.019,72.464,85.16,84.158,73.085Zm-18.267.922A5.6,5.6,0,0,1,68.48,71.9a5.3,5.3,0,0,1,4.895-3.377h0a5.179,5.179,0,0,1,3.773,1.635l2.408,2.526-7.144,7.375-.332.339Z" transform="translate(-103.333 74)"/></g></svg>