<svg xmlns="http://www.w3.org/2000/svg" width="96.132" height="125.998" viewBox="0 0 96.132 125.998"><g transform="translate(-60.68)"><g transform="translate(60.68 0)"><path d="M156.812,104.286c-.28-17.124-17.788-22.183-30.572-25.877-1.492-.431-2.926-.846-4.27-1.259V70.085a25.174,25.174,0,0,0,6.751-6.206h7.787a6.919,6.919,0,0,0,6.911-6.911V48.6a8.874,8.874,0,0,0,.719-3.507v-2.6a8.863,8.863,0,0,0-.719-3.5V34.674a34.67,34.67,0,1,0-69.34,0v4.192c0,.033,0,.065,0,.1a8.862,8.862,0,0,0-.73,3.53v2.6a8.927,8.927,0,0,0,8.913,8.92H84.3A25.045,25.045,0,0,0,95.522,70.084v7.065c-1.344.414-2.779.828-4.27,1.259C78.468,82.1,60.96,87.162,60.68,104.286c0,.014,0,.027,0,.04v19.211A2.461,2.461,0,0,0,63.141,126h7.3a2.461,2.461,0,1,0,0-4.922H65.6V104.347c.1-5.974,2.848-10.453,8.636-14.094A56.4,56.4,0,0,1,87.33,84.706l5.946,11.584a2.486,2.486,0,0,0,3.565.916l2.651-1.788,2.276,8.555-3.9,17.1H92.535a2.461,2.461,0,1,0,0,4.922h61.816a2.461,2.461,0,0,0,2.461-2.461V104.326c0-.013,0-.027,0-.04ZM124.874,83.137l.49.142-4.254,8.3-7.961-5.368,6.746-4.55c1.567.493,3.234.975,4.979,1.48Zm-16.126,6.039,4.935,3.328-2.385,8.964h-5.1l-2.384-8.961Zm0-5.936-8.3-5.6V72.459a24.937,24.937,0,0,0,16.6,0V77.64Zm20.048-48.115-.1-.064c-5.05-3.214-9.411-5.991-16.244-4.035-.063.018-.126.039-.188.062-1.449.544-2.766,1.051-4.04,1.542-7.782,3-12.031,4.632-19.524,4.421V35.079a20.049,20.049,0,1,1,40.1,0v.046Zm9.7,21.844a1.992,1.992,0,0,1-1.989,1.989h-4.9a24.762,24.762,0,0,0,1.587-4.942h2.034a8.853,8.853,0,0,0,3.273-.626v3.578Zm.719-11.873a4,4,0,0,1-3.991,4h-1.51c0-.061,0-10.592,0-10.592h1.508a4,4,0,0,1,3.991,3.992v2.6Zm-56.949,4a4,4,0,0,1-3.991-4v-2.6A4,4,0,0,1,82.267,38.5h1.508s0,10.531,0,10.592Zm1.554-15.514H82.267a8.861,8.861,0,0,0-3.26.62,29.746,29.746,0,0,1,59.484,0,8.861,8.861,0,0,0-3.267-.623H133.67a24.969,24.969,0,0,0-49.849,0Zm5.024,17.725V51.3a20.163,20.163,0,0,1-.147-2.387v-6.94c8.419.205,13.442-1.727,21.292-4.749,1.236-.476,2.514-.968,3.906-1.491,4.649-1.3,7.323.406,12.155,3.481.838.534,1.758,1.119,2.744,1.719v7.98a19.92,19.92,0,0,1-2.71,10.046H108.746a2.461,2.461,0,1,0,0,4.922h13.319a20.03,20.03,0,0,1-33.22-12.574Zm7.543,40.27-4.259-8.3.489-.142c1.746-.5,3.412-.987,4.98-1.48l6.748,4.551Zm6.529,29.5,3.349-14.687h4.961l3.354,14.687Zm48.974,0H119.63l-3.906-17.1L118,95.416l2.658,1.792a2.486,2.486,0,0,0,3.566-.917l5.939-11.583a56.4,56.4,0,0,1,13.091,5.546c5.788,3.641,8.533,8.12,8.636,14.094v16.729Z" transform="translate(-60.68 0)"/><path d="M346.294,441.995h-12.4a2.461,2.461,0,0,0,0,4.922h12.4a2.461,2.461,0,1,0,0-4.922Z" transform="translate(-264.802 -333.224)"/><path d="M137.688,492a2.461,2.461,0,0,0,0,4.922h.007a2.461,2.461,0,0,0-.007-4.922Z" transform="translate(-116.882 -370.922)"/></g></g></svg>