<svg xmlns="http://www.w3.org/2000/svg" width="112.333" height="112.333" viewBox="0 0 112.333 112.333"><path d="M110.461,37.444H101.1V24.339a1.872,1.872,0,0,0-1.872-1.872H93.611V1.872A1.872,1.872,0,0,0,91.739,0H20.594a1.872,1.872,0,0,0-1.872,1.872V22.467H13.106a1.872,1.872,0,0,0-1.872,1.872V37.444H1.872A1.872,1.872,0,0,0,0,39.317V91.739a1.872,1.872,0,0,0,1.872,1.872h16.85v16.85a1.872,1.872,0,0,0,1.872,1.872H91.739a1.872,1.872,0,0,0,1.872-1.872V93.611h16.85a1.872,1.872,0,0,0,1.872-1.872V39.317A1.872,1.872,0,0,0,110.461,37.444ZM93.611,26.211h3.744V37.444H93.611ZM22.467,3.744h67.4v33.7h-67.4ZM14.978,26.211h3.744V37.444H14.978Zm3.744,56.167H16.85V76.761h1.872Zm71.144,26.211h-67.4V76.761h67.4Zm18.722-18.722H93.611V86.122h3.744a1.872,1.872,0,0,0,1.872-1.872V74.889a1.872,1.872,0,0,0-1.872-1.872H14.978a1.872,1.872,0,0,0-1.872,1.872V84.25a1.872,1.872,0,0,0,1.872,1.872h3.744v3.744H3.744V41.189H108.589ZM93.611,82.378V76.761h1.872v5.617Z"/><g transform="translate(41.453 82.139)"><g transform="translate(0 0)"><rect width="40.686" height="3.838"/></g></g><g transform="translate(29.939 89.816)"><g transform="translate(0 0)"><rect width="52.2" height="3.838"/></g></g><g transform="translate(29.939 97.492)"><g transform="translate(0 0)"><rect width="41.453" height="3.838"/></g></g><g transform="translate(29.939 82.139)"><g transform="translate(0 0)"><rect width="7.677" height="3.838"/></g></g><g transform="translate(7.489 44.933)"><path d="M48.85,192H33.872A1.872,1.872,0,0,0,32,193.872v7.489a1.872,1.872,0,0,0,1.872,1.872H48.85a1.872,1.872,0,0,0,1.872-1.872v-7.489A1.872,1.872,0,0,0,48.85,192Zm-1.872,7.489H35.744v-3.744H46.978Z" transform="translate(-32 -192)"/></g><g transform="translate(29.939 52.201)"><g transform="translate(0 0)"><rect width="18.424" height="3.838"/></g></g><g transform="translate(52.2 52.201)"><g transform="translate(0 0)"><rect width="3.838" height="3.838"/></g></g></svg>